<svg width="103" height="50" viewBox="0 0 103 50" fill="none" xmlns="http://www.w3.org/2000/svg">
<g clip-path="url(#clip0_162_9173)">
<rect width="103" height="50" rx="25" fill="#12BDB3"/>
<rect width="103" height="50" rx="25" fill="url(#paint0_radial_162_9173)" fill-opacity="0.6"/>
<g clip-path="url(#clip1_162_9173)">
<g opacity="0.4">
<mask id="mask0_162_9173" style="mask-type:alpha"  x="0" y="0" width="103" height="50">
<rect width="103" height="50" rx="25" fill="#18E4D8"/>
</mask>
<g mask="url(#mask0_162_9173)">
<rect width="8.00806" height="318.988" transform="matrix(0.528473 0.84895 -0.490203 0.871608 51.126 -254.551)" fill="white" fill-opacity="0.3"/>
<rect width="8.00806" height="318.988" transform="matrix(0.528473 0.84895 -0.490203 0.871608 61.001 -238.688)" fill="white" fill-opacity="0.3"/>
<rect width="8.00806" height="318.988" transform="matrix(0.528473 0.84895 -0.490203 0.871608 70.876 -222.824)" fill="white" fill-opacity="0.3"/>
<rect width="8.00806" height="318.988" transform="matrix(0.528473 0.84895 -0.490203 0.871608 80.75 -206.962)" fill="white" fill-opacity="0.3"/>
<rect width="8.00806" height="318.988" transform="matrix(0.528473 0.84895 -0.490203 0.871608 90.625 -191.099)" fill="white" fill-opacity="0.3"/>
<rect width="8.00806" height="318.988" transform="matrix(0.528473 0.84895 -0.490203 0.871608 100.5 -175.235)" fill="white" fill-opacity="0.3"/>
<rect width="8.00806" height="318.988" transform="matrix(0.528473 0.84895 -0.490203 0.871608 110.375 -159.372)" fill="white" fill-opacity="0.3"/>
<rect width="8.00806" height="318.988" transform="matrix(0.528473 0.84895 -0.490203 0.871608 120.249 -143.51)" fill="white" fill-opacity="0.3"/>
<rect width="8.00806" height="318.988" transform="matrix(0.528473 0.84895 -0.490203 0.871608 130.124 -127.646)" fill="white" fill-opacity="0.3"/>
<rect width="8.00806" height="318.988" transform="matrix(0.528473 0.84895 -0.490203 0.871608 139.999 -111.783)" fill="white" fill-opacity="0.3"/>
<rect width="8.00806" height="318.988" transform="matrix(0.528473 0.84895 -0.490203 0.871608 149.874 -95.9199)" fill="white" fill-opacity="0.3"/>
<rect width="8.00806" height="318.988" transform="matrix(0.528473 0.84895 -0.490203 0.871608 159.748 -80.0576)" fill="white" fill-opacity="0.3"/>
<rect width="8.00806" height="318.988" transform="matrix(0.528473 0.84895 -0.490203 0.871608 169.623 -64.1943)" fill="white" fill-opacity="0.3"/>
<rect width="8.00806" height="318.988" transform="matrix(0.528473 0.84895 -0.490203 0.871608 179.498 -48.3311)" fill="white" fill-opacity="0.3"/>
<rect width="8.00806" height="318.988" transform="matrix(0.528473 0.84895 -0.490203 0.871608 189.373 -32.4678)" fill="white" fill-opacity="0.3"/>
<rect width="8.00806" height="318.988" transform="matrix(0.528473 0.84895 -0.490203 0.871608 199.247 -16.6055)" fill="white" fill-opacity="0.3"/>
<rect width="8.00806" height="318.988" transform="matrix(0.528473 0.84895 -0.490203 0.871608 209.122 -0.742188)" fill="white" fill-opacity="0.3"/>
<rect width="8.00806" height="318.988" transform="matrix(0.528473 0.84895 -0.490203 0.871608 218.997 15.1211)" fill="white" fill-opacity="0.3"/>
<rect width="8.00806" height="318.988" transform="matrix(0.528473 0.84895 -0.490203 0.871608 228.872 30.9844)" fill="white" fill-opacity="0.3"/>
<rect width="8.00806" height="318.988" transform="matrix(0.528473 0.84895 -0.490203 0.871608 238.747 46.8467)" fill="white" fill-opacity="0.3"/>
</g>
</g>
</g>
<g filter="url(#filter0_f_162_9173)">
<path d="M4.61612 26.9884C4.24169 22.4215 5.14032 12.2913 11.7303 8.30566C13.2282 10.2985 7.61164 21.5912 4.61612 26.9884Z" fill="url(#paint1_linear_162_9173)"/>
</g>
<g filter="url(#filter1_f_162_9173)">
<path d="M6.00724 22.6602C5.89401 22.8075 5.78414 22.9575 5.67755 23.1099C3.24439 26.5905 8.06049 26.3788 8.93402 22.223C9.38739 20.066 7.35054 20.9127 6.00724 22.6602Z" fill="url(#paint2_linear_162_9173)"/>
</g>
</g>
<defs>
<filter id="filter0_f_162_9173" x="3.52831" y="7.29003" width="9.46681" height="20.7139"  color-interpolation-filters="sRGB">
<feFlood flood-opacity="0" result="BackgroundImageFix"/>
<feBlend in="SourceGraphic" in2="BackgroundImageFix" result="shape"/>
<feGaussianBlur stdDeviation="0.507816" result="effect1_foregroundBlur_162_9173"/>
</filter>
<filter id="filter1_f_162_9173" x="3.98242" y="19.9228" width="6.03224" height="6.63771"  color-interpolation-filters="sRGB">
<feFlood flood-opacity="0" result="BackgroundImageFix"/>
<feBlend in="SourceGraphic" in2="BackgroundImageFix" result="shape"/>
<feGaussianBlur stdDeviation="0.507816" result="effect1_foregroundBlur_162_9173"/>
</filter>
<radialGradient id="paint0_radial_162_9173" cx="0" cy="0" r="1" gradientTransform="translate(51.7052 45) rotate(90) scale(11.6667 35.2727)">
<stop stop-color="white" stop-opacity="0.71"/>
<stop offset="1" stop-color="white" stop-opacity="0"/>
</radialGradient>
<linearGradient id="paint1_linear_162_9173" x1="7.0225" y1="13.4953" x2="11.4076" y2="16.7173">
<stop stop-color="#D9D9D9"/>
<stop offset="1" stop-color="#D9D9D9" stop-opacity="0"/>
</linearGradient>
<linearGradient id="paint2_linear_162_9173" x1="5.78326" y1="22.3739" x2="10.0846" y2="24.2998">
<stop stop-color="#D9D9D9"/>
<stop offset="1" stop-color="#D9D9D9" stop-opacity="0"/>
</linearGradient>
<clipPath id="clip0_162_9173">
<rect width="103" height="50" fill="white"/>
</clipPath>
<clipPath id="clip1_162_9173">
<rect width="103" height="50" rx="25" fill="white"/>
</clipPath>
</defs>
</svg>
