<svg width="16" height="16" viewBox="0 0 16 16" fill="none" xmlns="http://www.w3.org/2000/svg">
<circle cx="8" cy="8" r="7.2" stroke="#F89022" stroke-width="1.6"/>
<path d="M6.5194 5.28562C6.6218 5.47335 6.73842 5.7066 6.86927 5.98535C7.0058 6.25842 7.14518 6.55709 7.2874 6.88135C7.43531 7.19993 7.58038 7.52704 7.7226 7.86269C7.86482 8.19833 7.99851 8.51406 8.12367 8.80989C8.24882 8.51406 8.38251 8.19833 8.52473 7.86269C8.66696 7.52704 8.80918 7.19993 8.9514 6.88135C9.09931 6.55709 9.23869 6.25842 9.36954 5.98535C9.50607 5.7066 9.62553 5.47335 9.72793 5.28562H10.9397C10.9966 5.67815 11.0478 6.11904 11.0933 6.60829C11.1445 7.09184 11.1871 7.59815 11.2213 8.12722C11.2611 8.6506 11.2952 9.17682 11.3237 9.70589C11.3578 10.235 11.3862 10.7327 11.409 11.1992H10.1119C10.0949 10.6246 10.0721 9.99886 10.0437 9.32189C10.0152 8.64491 9.97256 7.96224 9.91567 7.27389C9.81327 7.51282 9.69949 7.77735 9.57433 8.06749C9.44918 8.35762 9.32402 8.64775 9.19887 8.93789C9.0794 9.22802 8.96278 9.50677 8.849 9.77415C8.73522 10.0358 8.63851 10.2606 8.55887 10.4483H7.62873C7.54909 10.2606 7.45238 10.0358 7.3386 9.77415C7.22482 9.50677 7.10536 9.22802 6.9802 8.93789C6.86073 8.64775 6.73842 8.35762 6.61327 8.06749C6.48811 7.77735 6.37433 7.51282 6.27193 7.27389C6.21505 7.96224 6.17238 8.64491 6.14393 9.32189C6.11549 9.99886 6.09273 10.6246 6.07567 11.1992H4.7786C4.80136 10.7327 4.82696 10.235 4.8554 9.70589C4.88953 9.17682 4.92367 8.6506 4.9578 8.12722C4.99762 7.59815 5.04029 7.09184 5.0858 6.60829C5.137 6.11904 5.19105 5.67815 5.24793 5.28562H6.5194Z" fill="#F89022"/>
</svg>
