<svg width="201" height="2" viewBox="0 0 201 2" fill="none" xmlns="http://www.w3.org/2000/svg">
<circle opacity="0.5" cx="1" cy="1" r="1" fill="white"/>
<circle opacity="0.5" cx="9" cy="1" r="1" fill="white"/>
<circle opacity="0.5" cx="17" cy="1" r="1" fill="white"/>
<circle opacity="0.5" cx="25" cy="1" r="1" fill="white"/>
<circle opacity="0.5" cx="33" cy="1" r="1" fill="white"/>
<circle opacity="0.5" cx="41" cy="1" r="1" fill="white"/>
<circle opacity="0.5" cx="49" cy="1" r="1" fill="white"/>
<circle opacity="0.5" cx="57" cy="1" r="1" fill="white"/>
<circle opacity="0.5" cx="65" cy="1" r="1" fill="white"/>
<circle opacity="0.5" cx="73" cy="1" r="1" fill="white"/>
<circle opacity="0.5" cx="81" cy="1" r="1" fill="white"/>
<circle opacity="0.5" cx="89" cy="1" r="1" fill="white"/>
<circle opacity="0.5" cx="97" cy="1" r="1" fill="white"/>
<circle opacity="0.5" cx="105" cy="1" r="1" fill="white"/>
<circle opacity="0.5" cx="113" cy="1" r="1" fill="white"/>
<circle opacity="0.5" cx="121" cy="1" r="1" fill="white"/>
<circle opacity="0.5" cx="129" cy="1" r="1" fill="white"/>
<circle opacity="0.5" cx="137" cy="1" r="1" fill="white"/>
<circle opacity="0.5" cx="145" cy="1" r="1" fill="white"/>
<circle opacity="0.5" cx="153" cy="1" r="1" fill="white"/>
<circle opacity="0.5" cx="161" cy="1" r="1" fill="white"/>
<circle opacity="0.5" cx="169" cy="1" r="1" fill="white"/>
<circle opacity="0.5" cx="177" cy="1" r="1" fill="white"/>
<circle opacity="0.5" cx="185" cy="1" r="1" fill="white"/>
<circle opacity="0.5" cx="193" cy="1" r="1" fill="white"/>
</svg>
